<?xml version="1.0" encoding="UTF-8"?>
<!--Generator: Apple Native CoreSVG 341-->
<!DOCTYPE svg
PUBLIC "-//W3C//DTD SVG 1.1//EN"
       "http://www.w3.org/Graphics/SVG/1.1/DTD/svg11.dtd">
<svg version="1.1" xmlns="http://www.w3.org/2000/svg" xmlns:xlink="http://www.w3.org/1999/xlink" viewBox="0 0 1044.92 1044.43">
 <g>
  <rect height="1044.43" opacity="0" width="1044.92" x="0" y="0"/>
  <path d="M473.145 1043.95L571.777 1043.95C609.375 1043.95 638.672 1021 646.973 984.863L667.969 893.555L683.594 888.184L763.184 937.012C794.922 956.543 831.543 952.148 858.398 925.293L926.758 857.422C953.613 830.566 958.008 793.457 938.477 762.207L888.672 683.105L894.531 668.457L985.84 646.973C1021.48 638.672 1044.92 608.887 1044.92 571.777L1044.92 475.098C1044.92 437.988 1021.97 408.691 985.84 399.902L895.508 377.93L889.16 362.305L938.965 283.203C958.496 251.953 954.59 215.332 927.246 187.988L858.887 119.629C832.52 93.2617 795.898 88.3789 764.16 107.91L684.57 156.738L667.969 150.391L646.973 59.082C638.672 22.9492 609.375 0 571.777 0L473.145 0C435.547 0 406.25 22.9492 397.949 59.082L376.465 150.391L359.863 156.738L280.762 107.91C249.023 88.3789 211.914 93.2617 185.547 119.629L117.676 187.988C90.332 215.332 85.9375 251.953 105.957 283.203L155.273 362.305L149.414 377.93L59.082 399.902C22.9492 408.691 0 437.988 0 475.098L0 571.777C0 608.887 23.4375 638.672 59.082 646.973L150.391 668.457L155.762 683.105L106.445 762.207C86.4258 793.457 91.3086 830.566 118.164 857.422L186.035 925.293C212.891 952.148 250 956.543 281.738 937.012L360.84 888.184L376.465 893.555L397.949 984.863C406.25 1021 435.547 1043.95 473.145 1043.95ZM480.957 967.773C472.656 967.773 468.262 964.355 466.797 956.543L437.5 835.449C407.715 828.125 379.883 816.406 358.887 803.223L252.441 868.652C246.582 873.047 239.746 872.559 234.375 866.211L176.758 808.594C171.387 803.223 170.898 797.363 174.805 790.527L240.234 685.059C229.004 664.551 216.309 636.719 208.496 606.934L87.4023 578.125C79.5898 576.66 76.1719 572.266 76.1719 563.965L76.1719 482.422C76.1719 473.633 79.1016 469.727 87.4023 468.262L208.008 438.965C215.82 407.227 230.469 378.418 239.258 360.352L174.316 254.883C169.922 247.559 170.41 241.699 175.781 235.84L233.887 179.199C239.746 173.34 245.117 172.852 252.441 176.758L357.91 240.723C378.906 229.004 408.691 216.797 437.988 208.496L466.797 87.4023C468.262 79.5898 472.656 76.1719 480.957 76.1719L563.965 76.1719C572.266 76.1719 576.66 79.5898 577.637 87.4023L607.422 209.473C637.695 217.285 664.062 229.492 686.035 241.211L791.992 176.758C799.805 172.852 804.688 173.34 811.035 179.199L868.652 235.84C874.512 241.699 874.512 247.559 870.117 254.883L805.176 360.352C814.453 378.418 828.613 407.227 836.426 438.965L957.52 468.262C965.332 469.727 968.75 473.633 968.75 482.422L968.75 563.965C968.75 572.266 964.844 576.66 957.52 578.125L835.938 606.934C828.125 636.719 815.918 664.551 804.199 685.059L869.629 790.527C873.535 797.363 873.535 803.223 867.676 808.594L810.547 866.211C804.688 872.559 798.34 873.047 791.992 868.652L685.547 803.223C664.551 816.406 637.207 828.125 607.422 835.449L577.637 956.543C576.66 964.355 572.266 967.773 563.965 967.773ZM522.461 708.008C625.488 708.008 708.496 625 708.496 521.973C708.496 418.945 625.488 335.938 522.461 335.938C419.434 335.938 336.426 418.945 336.426 521.973C336.426 625 419.434 708.008 522.461 708.008ZM522.461 632.324C461.426 632.324 412.109 583.008 412.109 521.973C412.109 460.938 461.426 411.621 522.461 411.621C583.496 411.621 632.812 460.938 632.812 521.973C632.812 583.008 583.496 632.324 522.461 632.324Z" fill="white" fill-opacity="0.85"/>
 </g>
</svg>
