<?xml version="1.0" encoding="UTF-8"?>
<!--Generator: Apple Native CoreSVG 341-->
<!DOCTYPE svg
PUBLIC "-//W3C//DTD SVG 1.1//EN"
       "http://www.w3.org/Graphics/SVG/1.1/DTD/svg11.dtd">
<svg version="1.1" xmlns="http://www.w3.org/2000/svg" xmlns:xlink="http://www.w3.org/1999/xlink" viewBox="0 0 1073.24 1079.59">
 <g>
  <rect height="1079.59" opacity="0" width="1073.24" x="0" y="0"/>
  <path d="M611.328 1079.59C646.484 1079.59 671.387 1049.32 689.453 1002.44L1009.28 166.992C1018.07 144.531 1022.95 124.512 1022.95 107.91C1022.95 76.1719 1003.42 56.6406 971.68 56.6406C955.078 56.6406 935.059 61.5234 912.598 70.3125L72.7539 392.09C31.7383 407.715 0 432.617 0 468.262C0 513.184 34.1797 528.32 81.0547 542.48L433.594 645.996L536.133 994.141C550.781 1043.46 565.918 1079.59 611.328 1079.59ZM455.566 571.777L118.652 468.75C110.84 466.309 108.398 464.355 108.398 460.938C108.398 457.52 110.352 455.078 117.676 452.148L777.832 202.148C816.895 187.5 854.492 167.969 890.625 151.367C858.398 177.734 818.359 208.984 791.504 235.84ZM619.141 972.168C615.234 972.168 613.281 968.75 610.84 960.938L507.812 624.023L843.75 288.086C870.117 261.719 902.832 220.703 928.711 187.5C912.109 224.609 892.09 262.207 877.441 301.758L627.441 961.914C624.512 969.238 622.559 972.168 619.141 972.168Z" fill="white" fill-opacity="0.85"/>
 </g>
</svg>
