<?xml version="1.0" encoding="UTF-8"?>
<!--Generator: Apple Native CoreSVG 341-->
<!DOCTYPE svg
PUBLIC "-//W3C//DTD SVG 1.1//EN"
       "http://www.w3.org/Graphics/SVG/1.1/DTD/svg11.dtd">
<svg version="1.1" xmlns="http://www.w3.org/2000/svg" xmlns:xlink="http://www.w3.org/1999/xlink" viewBox="0 0 805.664 806.152">
 <g>
  <rect height="806.152" opacity="0" width="805.664" x="0" y="0"/>
  <path d="M446.777 762.207L446.777 43.457C446.777 20.0195 426.758 0 402.832 0C378.906 0 359.375 20.0195 359.375 43.457L359.375 762.207C359.375 785.645 378.906 805.664 402.832 805.664C426.758 805.664 446.777 785.645 446.777 762.207ZM43.457 446.289L762.207 446.289C785.645 446.289 805.664 426.758 805.664 402.832C805.664 378.906 785.645 358.887 762.207 358.887L43.457 358.887C20.0195 358.887 0 378.906 0 402.832C0 426.758 20.0195 446.289 43.457 446.289Z" fill="white" fill-opacity="0.85"/>
 </g>
</svg>
