<?xml version="1.0" encoding="UTF-8"?>
<!--Generator: Apple Native CoreSVG 341-->
<!DOCTYPE svg
PUBLIC "-//W3C//DTD SVG 1.1//EN"
       "http://www.w3.org/Graphics/SVG/1.1/DTD/svg11.dtd">
<svg version="1.1" xmlns="http://www.w3.org/2000/svg" xmlns:xlink="http://www.w3.org/1999/xlink" viewBox="0 0 1287.6 1047.36">
 <g>
  <rect height="1047.36" opacity="0" width="1287.6" x="0" y="0"/>
  <path d="M897.949 204.59L897.949 393.066L819.336 393.066L819.336 204.102C819.336 124.023 774.414 78.6133 693.848 78.6133L280.762 78.6133C200.684 78.6133 155.273 124.023 155.273 204.102L155.273 842.773C155.273 923.34 200.684 968.262 280.762 968.262L693.848 968.262C774.414 968.262 819.336 923.34 819.336 842.773L819.336 653.809L897.949 653.809L897.949 842.773C897.949 974.121 825.195 1046.88 693.848 1046.88L281.25 1046.88C149.902 1046.88 76.6602 974.121 76.6602 842.773L76.6602 204.59C76.6602 73.2422 149.902 0 281.25 0L693.848 0C825.195 0 897.949 73.2422 897.949 204.59Z" fill="white" fill-opacity="0.85"/>
  <path d="M496.094 523.438C496.094 544.434 513.184 562.012 533.691 562.012L1030.76 562.012L1162.11 556.152C1180.18 555.176 1194.82 541.504 1194.82 523.438C1194.82 505.371 1180.18 491.699 1162.11 490.723L1030.76 484.375L533.691 484.375C513.184 484.375 496.094 502.441 496.094 523.438ZM982.422 357.91C982.422 367.188 986.328 377.93 994.141 384.766L1074.71 459.961L1142.09 523.438L1074.71 586.426L994.141 662.109C986.328 668.945 982.422 679.199 982.422 688.477C982.422 708.496 997.07 724.121 1017.09 724.121C1027.34 724.121 1035.16 719.727 1042.48 712.402L1197.75 551.758C1207.52 541.992 1210.94 533.203 1210.94 523.438C1210.94 513.184 1207.52 504.883 1197.75 495.117L1042.48 333.984C1035.16 326.66 1027.34 322.754 1017.09 322.754C997.07 322.754 982.422 337.402 982.422 357.91Z" fill="white" fill-opacity="0.85"/>
 </g>
</svg>
